# xmcd
#
# Track frame offsets:
#	150
#	20579
#	37155
#	72539
#
# Disc length: 1267 seconds
#
# Revision: 1
# Processed by: cddbd v1.4PL0 Copyright (c) Steve Scherf et al.
# Submitted via: audiograbber 1.81.03
#
DISCID=3704f104
DTITLE=Angie Stone - Wish I didn't miss you so  (Maxi Single Germany)
DYEAR=2002
DGENRE=R&B
TTITLE0=Angie Stone - Wish I didn't Miss you so (album version)
TTITLE1=Angie Stone - Wish I didn't Miss you so (radio vibe version)
TTITLE2=Angie Stone - Wish I didn't Miss you so (pound boys stoneface bootleg m
TTITLE2=ix)
TTITLE3=Angie Stone - Gotta get to know you better
EXTD=
EXTT0=
EXTT1=
EXTT2=
EXTT3=
PLAYORDER=
